<svg width="570.201" height="72.302" viewBox="0 0 570.201 72.302" xmlns="http://www.w3.org/2000/svg"><g id="svgGroup" stroke-linecap="round" fill-rule="evenodd" font-size="9pt" stroke="#ffffff" stroke-width="0.25mm" fill="#ffffff" style="stroke:#ffffff;stroke-width:0.25mm;fill:#ffffff"><path d="M 241.1 65.4 L 241.1 71.5 Q 241.1 71.994 240.694 72.217 A 1.174 1.174 0 0 1 240.5 72.3 L 232.9 72.3 A 29.086 29.086 0 0 1 229.134 72.074 Q 224.678 71.49 222.3 69.4 A 8.262 8.262 0 0 1 220.163 66.318 Q 219 63.535 219 59.2 L 219 30 L 213.9 30 Q 211.58 30 211.413 27.418 A 6.458 6.458 0 0 1 211.4 27 L 211.4 22.3 L 219 22.3 L 219 0 L 225.1 0 A 14.027 14.027 0 0 1 227.64 0.215 Q 229.042 0.474 230.14 1.043 A 6.699 6.699 0 0 1 231.75 2.2 A 7.387 7.387 0 0 1 233.986 7.276 A 9.868 9.868 0 0 1 234 7.8 L 234 61 Q 234 64.7 238.2 64.7 L 240.3 64.7 A 1.33 1.33 0 0 1 240.602 64.731 Q 241.014 64.828 241.085 65.222 A 1.002 1.002 0 0 1 241.1 65.4 Z M 437.9 65.4 L 437.9 71.5 Q 437.9 71.994 437.494 72.217 A 1.174 1.174 0 0 1 437.3 72.3 L 429.7 72.3 A 29.086 29.086 0 0 1 425.934 72.074 Q 421.478 71.49 419.1 69.4 A 8.262 8.262 0 0 1 416.963 66.318 Q 415.8 63.535 415.8 59.2 L 415.8 30 L 410.7 30 Q 408.38 30 408.213 27.418 A 6.458 6.458 0 0 1 408.2 27 L 408.2 22.3 L 415.8 22.3 L 415.8 0 L 421.9 0 A 14.027 14.027 0 0 1 424.44 0.215 Q 425.842 0.474 426.94 1.043 A 6.699 6.699 0 0 1 428.55 2.2 A 7.387 7.387 0 0 1 430.786 7.276 A 9.868 9.868 0 0 1 430.8 7.8 L 430.8 61 Q 430.8 64.7 435 64.7 L 437.1 64.7 A 1.33 1.33 0 0 1 437.402 64.731 Q 437.814 64.828 437.885 65.222 A 1.002 1.002 0 0 1 437.9 65.4 Z M 74.3 65.5 L 74.3 71.6 A 1.452 1.452 0 0 1 74.281 71.847 Q 74.202 72.3 73.8 72.3 L 63.7 72.3 Q 58.1 72.3 55.45 69.7 Q 52.8 67.1 52.8 61.2 L 52.8 0.1 L 58.9 0.1 A 14.355 14.355 0 0 1 61.433 0.309 Q 64.001 0.77 65.55 2.25 A 7.185 7.185 0 0 1 67.777 7.123 A 9.73 9.73 0 0 1 67.8 7.8 L 67.8 61 Q 67.8 64.1 69.1 64.5 Q 69.8 64.8 71 64.8 L 73.5 64.8 A 1.33 1.33 0 0 1 73.802 64.831 Q 74.214 64.928 74.285 65.322 A 1.002 1.002 0 0 1 74.3 65.5 Z M 16 0 L 16 72.3 L 5.5 72.3 A 16.62 16.62 0 0 1 4.125 72.248 Q 1.87 72.06 1.05 71.2 Q 0.222 70.333 0.047 68.034 A 17.644 17.644 0 0 1 0 66.7 L 0 5.8 Q 0 2.3 1.1 1.15 Q 2.2 0 5.5 0 L 16 0 Z M 382.1 22.3 L 382.1 29.8 L 376.7 29.8 A 13.539 13.539 0 0 0 375.633 29.839 Q 373.525 30.007 373.2 30.9 A 5.372 5.372 0 0 0 372.859 31.922 Q 372.617 32.953 372.601 34.399 A 18.651 18.651 0 0 0 372.6 34.6 L 372.6 60 L 372.6 61.2 Q 372.6 61.985 372.723 62.586 A 4.281 4.281 0 0 0 372.8 62.9 A 2.004 2.004 0 0 0 373.971 64.323 Q 374.947 64.8 376.7 64.8 L 382.1 64.8 L 382.1 72.3 L 372.4 72.3 Q 368.6 72.3 366.2 71.95 A 10.919 10.919 0 0 1 363.626 71.262 A 9.235 9.235 0 0 1 362 70.4 A 11.107 11.107 0 0 1 360.642 69.343 Q 359.929 68.689 359.444 67.972 A 6.617 6.617 0 0 1 359.3 67.75 Q 358.541 66.527 357.995 64.059 A 30.379 30.379 0 0 1 357.8 63.1 Q 357.1 58.6 357.1 50.5 A 1033.584 1033.584 0 0 1 357.106 46.992 Q 357.119 42.965 357.167 40.742 A 90.09 90.09 0 0 1 357.2 39.55 A 132.513 132.513 0 0 1 357.384 35.851 A 158.07 158.07 0 0 1 357.55 33.5 Q 357.754 30.886 358.225 29.407 A 6.451 6.451 0 0 1 358.45 28.8 Q 359.1 27.3 360.15 25.75 Q 361.2 24.2 362.9 23.6 A 20.048 20.048 0 0 1 365.97 22.808 Q 368.775 22.3 372.4 22.3 L 382.1 22.3 Z M 545.3 29.8 L 545.3 22.3 L 559.3 22.3 A 16.058 16.058 0 0 1 563.547 22.812 Q 568.407 24.148 569.717 28.969 A 15.399 15.399 0 0 1 570.2 33 L 570.2 72.3 L 558.8 72.3 A 3.783 3.783 0 0 1 557.536 72.097 A 3.24 3.24 0 0 1 556.2 71.2 A 3.751 3.751 0 0 1 555.308 69.406 A 5.403 5.403 0 0 1 555.2 68.3 L 555.2 32.8 A 5.376 5.376 0 0 0 555.141 31.974 Q 554.99 31.004 554.45 30.5 Q 553.725 29.824 551.272 29.801 A 18.631 18.631 0 0 0 551.1 29.8 L 545.3 29.8 Z M 321.9 29.8 L 321.9 22.3 L 335.5 22.3 A 16.058 16.058 0 0 1 339.747 22.812 Q 344.607 24.148 345.917 28.969 A 15.399 15.399 0 0 1 346.4 33 L 346.4 72.3 L 335 72.3 A 3.783 3.783 0 0 1 333.736 72.097 A 3.24 3.24 0 0 1 332.4 71.2 A 3.751 3.751 0 0 1 331.508 69.406 A 5.403 5.403 0 0 1 331.4 68.3 L 331.4 32.8 A 5.376 5.376 0 0 0 331.341 31.974 Q 331.19 31.004 330.65 30.5 Q 329.925 29.824 327.472 29.801 A 18.631 18.631 0 0 0 327.3 29.8 L 321.9 29.8 Z M 294.8 29.8 L 294.8 22.3 L 308.4 22.3 A 16.058 16.058 0 0 1 312.647 22.812 Q 317.507 24.148 318.817 28.969 A 15.399 15.399 0 0 1 319.3 33 L 319.3 72.3 L 307.9 72.3 A 3.783 3.783 0 0 1 306.636 72.097 A 3.24 3.24 0 0 1 305.3 71.2 A 3.751 3.751 0 0 1 304.408 69.406 A 5.403 5.403 0 0 1 304.3 68.3 L 304.3 32.8 A 5.376 5.376 0 0 0 304.241 31.974 Q 304.09 31.004 303.55 30.5 Q 302.825 29.824 300.372 29.801 A 18.631 18.631 0 0 0 300.2 29.8 L 294.8 29.8 Z M 161.8 61.6 L 161.8 22.3 L 173.2 22.3 A 3.783 3.783 0 0 1 174.464 22.503 A 3.24 3.24 0 0 1 175.8 23.4 A 3.751 3.751 0 0 1 176.692 25.194 A 5.403 5.403 0 0 1 176.8 26.3 L 176.8 61.8 A 5.376 5.376 0 0 0 176.859 62.626 Q 177.01 63.596 177.55 64.1 Q 178.275 64.777 180.728 64.8 A 18.631 18.631 0 0 0 180.9 64.8 L 186.3 64.8 L 186.3 72.3 L 172.7 72.3 A 16.058 16.058 0 0 1 168.453 71.788 Q 163.593 70.453 162.283 65.632 A 15.399 15.399 0 0 1 161.8 61.6 Z M 134.7 61.6 L 134.7 22.3 L 146.1 22.3 A 3.783 3.783 0 0 1 147.364 22.503 A 3.24 3.24 0 0 1 148.7 23.4 A 3.751 3.751 0 0 1 149.592 25.194 A 5.403 5.403 0 0 1 149.7 26.3 L 149.7 61.8 A 5.376 5.376 0 0 0 149.759 62.626 Q 149.91 63.596 150.45 64.1 Q 151.175 64.777 153.628 64.8 A 18.631 18.631 0 0 0 153.8 64.8 L 159.2 64.8 L 159.2 72.3 L 145.6 72.3 A 16.058 16.058 0 0 1 141.353 71.788 Q 136.493 70.453 135.183 65.632 A 15.399 15.399 0 0 1 134.7 61.6 Z M 99 29.8 L 99 22.3 L 108.7 22.3 Q 112.5 22.3 114.9 22.65 A 10.919 10.919 0 0 1 117.475 23.339 A 9.235 9.235 0 0 1 119.1 24.2 A 11.107 11.107 0 0 1 120.459 25.257 Q 121.171 25.912 121.657 26.629 A 6.617 6.617 0 0 1 121.8 26.85 Q 122.561 28.076 123.036 30.551 A 27.912 27.912 0 0 1 123.2 31.5 Q 123.923 35.565 123.993 42.566 A 153.653 153.653 0 0 1 124 44.1 A 1033.584 1033.584 0 0 1 123.995 47.609 Q 123.981 51.636 123.933 53.858 A 90.09 90.09 0 0 1 123.9 55.05 A 132.513 132.513 0 0 1 123.717 58.75 A 158.07 158.07 0 0 1 123.55 61.1 Q 123.346 63.714 122.875 65.194 A 6.451 6.451 0 0 1 122.65 65.8 A 17.393 17.393 0 0 1 121.681 67.695 A 21.361 21.361 0 0 1 120.95 68.85 Q 119.9 70.4 118.2 71 A 20.048 20.048 0 0 1 115.13 71.792 Q 112.325 72.3 108.7 72.3 L 108.5 72.3 L 108.5 34.6 L 108.5 33.4 A 16.808 16.808 0 0 0 108.486 32.692 Q 108.463 32.138 108.4 31.7 A 2.146 2.146 0 0 0 107.181 30.29 Q 106.177 29.8 104.4 29.8 L 99 29.8 Z M 491.9 29.8 L 491.9 22.3 L 501.6 22.3 Q 505.4 22.3 507.8 22.65 A 10.919 10.919 0 0 1 510.375 23.339 A 9.235 9.235 0 0 1 512 24.2 A 11.107 11.107 0 0 1 513.359 25.257 Q 514.071 25.912 514.557 26.629 A 6.617 6.617 0 0 1 514.7 26.85 Q 515.461 28.076 515.936 30.551 A 27.912 27.912 0 0 1 516.1 31.5 Q 516.823 35.565 516.893 42.566 A 153.653 153.653 0 0 1 516.9 44.1 A 1033.584 1033.584 0 0 1 516.895 47.609 Q 516.881 51.636 516.833 53.858 A 90.09 90.09 0 0 1 516.8 55.05 A 132.513 132.513 0 0 1 516.617 58.75 A 158.07 158.07 0 0 1 516.45 61.1 Q 516.246 63.714 515.775 65.194 A 6.451 6.451 0 0 1 515.55 65.8 A 17.393 17.393 0 0 1 514.581 67.695 A 21.361 21.361 0 0 1 513.85 68.85 Q 512.8 70.4 511.1 71 A 20.048 20.048 0 0 1 508.03 71.792 Q 505.225 72.3 501.6 72.3 L 501.4 72.3 L 501.4 34.6 L 501.4 33.4 A 16.808 16.808 0 0 0 501.386 32.692 Q 501.363 32.138 501.3 31.7 A 2.146 2.146 0 0 0 500.081 30.29 Q 499.077 29.8 497.3 29.8 L 491.9 29.8 Z M 95.8 22.3 L 96 22.3 L 96 60 L 96 61.2 Q 96 61.985 96.123 62.586 A 4.281 4.281 0 0 0 96.2 62.9 A 2.004 2.004 0 0 0 97.371 64.323 Q 98.347 64.8 100.1 64.8 L 105.5 64.8 L 105.5 72.3 L 95.8 72.3 Q 92 72.3 89.6 71.95 A 10.919 10.919 0 0 1 87.026 71.262 A 9.235 9.235 0 0 1 85.4 70.4 A 11.107 11.107 0 0 1 84.042 69.343 Q 83.329 68.689 82.844 67.972 A 6.617 6.617 0 0 1 82.7 67.75 Q 81.941 66.527 81.395 64.059 A 30.379 30.379 0 0 1 81.2 63.1 Q 80.5 58.6 80.5 50.5 A 1033.584 1033.584 0 0 1 80.506 46.992 Q 80.519 42.965 80.567 40.742 A 90.09 90.09 0 0 1 80.6 39.55 A 132.513 132.513 0 0 1 80.784 35.851 A 158.07 158.07 0 0 1 80.95 33.5 Q 81.154 30.886 81.625 29.407 A 6.451 6.451 0 0 1 81.85 28.8 Q 82.5 27.3 83.55 25.75 Q 84.6 24.2 86.3 23.6 A 20.048 20.048 0 0 1 89.37 22.808 Q 92.175 22.3 95.8 22.3 Z M 488.7 22.3 L 488.9 22.3 L 488.9 60 L 488.9 61.2 Q 488.9 61.985 489.023 62.586 A 4.281 4.281 0 0 0 489.1 62.9 A 2.004 2.004 0 0 0 490.271 64.323 Q 491.247 64.8 493 64.8 L 498.4 64.8 L 498.4 72.3 L 488.7 72.3 Q 484.9 72.3 482.5 71.95 A 10.919 10.919 0 0 1 479.926 71.262 A 9.235 9.235 0 0 1 478.3 70.4 A 11.107 11.107 0 0 1 476.942 69.343 Q 476.229 68.689 475.744 67.972 A 6.617 6.617 0 0 1 475.6 67.75 Q 474.841 66.527 474.295 64.059 A 30.379 30.379 0 0 1 474.1 63.1 Q 473.4 58.6 473.4 50.5 A 1033.584 1033.584 0 0 1 473.406 46.992 Q 473.419 42.965 473.467 40.742 A 90.09 90.09 0 0 1 473.5 39.55 A 132.513 132.513 0 0 1 473.684 35.851 A 158.07 158.07 0 0 1 473.85 33.5 Q 474.054 30.886 474.525 29.407 A 6.451 6.451 0 0 1 474.75 28.8 Q 475.4 27.3 476.45 25.75 Q 477.5 24.2 479.2 23.6 A 20.048 20.048 0 0 1 482.27 22.808 Q 485.075 22.3 488.7 22.3 Z M 404.6 65.5 L 404.6 71.6 A 1.83 1.83 0 0 1 404.586 71.838 Q 404.552 72.094 404.438 72.208 A 0.322 0.322 0 0 1 404.2 72.3 L 396 72.3 Q 390.4 72.3 387.75 69.7 Q 385.1 67.1 385.1 61.2 L 385.1 22.3 L 389.2 22.3 Q 395.5 22.3 397.8 25.25 Q 400.1 28.2 400.1 33 L 400.1 61 Q 400.1 64.1 401.4 64.5 Q 402.1 64.8 403.3 64.8 L 403.8 64.8 A 1.33 1.33 0 0 1 404.102 64.831 Q 404.514 64.928 404.585 65.322 A 1.002 1.002 0 0 1 404.6 65.5 Z M 277.3 68.3 L 277.3 22.3 L 283.4 22.3 A 14.355 14.355 0 0 1 285.933 22.509 Q 288.501 22.97 290.05 24.45 A 7.185 7.185 0 0 1 292.277 29.323 A 9.73 9.73 0 0 1 292.3 30 L 292.3 72.3 L 280.9 72.3 A 3.783 3.783 0 0 1 279.636 72.097 A 3.24 3.24 0 0 1 278.3 71.2 A 3.751 3.751 0 0 1 277.408 69.406 A 5.403 5.403 0 0 1 277.3 68.3 Z M 527.8 68.3 L 527.8 22.3 L 533.9 22.3 A 14.355 14.355 0 0 1 536.433 22.509 Q 539.001 22.97 540.55 24.45 A 7.185 7.185 0 0 1 542.777 29.323 A 9.73 9.73 0 0 1 542.8 30 L 542.8 72.3 L 531.4 72.3 A 3.783 3.783 0 0 1 530.136 72.097 A 3.24 3.24 0 0 1 528.8 71.2 A 3.751 3.751 0 0 1 527.908 69.406 A 5.403 5.403 0 0 1 527.8 68.3 Z M 189.3 72.3 L 189.3 22.3 L 200.7 22.3 A 3.783 3.783 0 0 1 201.964 22.503 A 3.24 3.24 0 0 1 203.3 23.4 A 3.751 3.751 0 0 1 204.192 25.194 A 5.403 5.403 0 0 1 204.3 26.3 L 204.3 64.6 A 8.39 8.39 0 0 1 203.9 67.247 A 7.008 7.008 0 0 1 202.05 70.15 A 7.123 7.123 0 0 1 199.314 71.746 Q 198.212 72.11 196.871 72.235 A 15.85 15.85 0 0 1 195.4 72.3 L 189.3 72.3 Z M 250.8 68.3 L 250.8 22.4 L 256.9 22.4 A 14.355 14.355 0 0 1 259.433 22.609 Q 262.001 23.07 263.55 24.55 A 7.185 7.185 0 0 1 265.777 29.423 A 9.73 9.73 0 0 1 265.8 30.1 L 265.8 72.3 L 254.4 72.3 A 3.783 3.783 0 0 1 253.136 72.097 A 3.24 3.24 0 0 1 251.8 71.2 A 3.751 3.751 0 0 1 250.908 69.406 A 5.403 5.403 0 0 1 250.8 68.3 Z M 447.6 68.3 L 447.6 22.4 L 453.7 22.4 A 14.355 14.355 0 0 1 456.233 22.609 Q 458.801 23.07 460.35 24.55 A 7.185 7.185 0 0 1 462.577 29.423 A 9.73 9.73 0 0 1 462.6 30.1 L 462.6 72.3 L 451.2 72.3 A 3.783 3.783 0 0 1 449.936 72.097 A 3.24 3.24 0 0 1 448.6 71.2 A 3.751 3.751 0 0 1 447.708 69.406 A 5.403 5.403 0 0 1 447.6 68.3 Z M 20 0 L 44.9 0 L 44.9 8.6 A 16.62 16.62 0 0 1 44.847 9.975 Q 44.659 12.23 43.8 13.05 A 2.714 2.714 0 0 1 42.95 13.575 Q 42.093 13.928 40.695 14.044 A 18.211 18.211 0 0 1 39.2 14.1 L 20 14.1 L 20 0 Z M 20 27.9 L 40.9 27.9 L 40.9 33.9 Q 40.9 36.985 40.386 38.124 A 1.792 1.792 0 0 1 40.2 38.45 A 1.537 1.537 0 0 1 39.623 38.899 Q 38.705 39.348 36.685 39.395 A 20.937 20.937 0 0 1 36.2 39.4 L 20 39.4 L 20 27.9 Z M 252.246 0.616 A 2.247 2.247 0 0 0 251.5 1.05 A 1.838 1.838 0 0 0 251.155 1.527 Q 250.4 2.958 250.4 7.1 A 37.323 37.323 0 0 0 250.419 8.307 Q 250.51 11.114 251.047 12.407 A 2.315 2.315 0 0 0 251.55 13.2 A 2.055 2.055 0 0 0 252.064 13.545 Q 253.218 14.115 255.955 14.255 A 38.363 38.363 0 0 0 257.9 14.3 A 41.9 41.9 0 0 0 259.211 14.281 Q 262.124 14.189 263.456 13.669 A 2.415 2.415 0 0 0 264.25 13.2 Q 265.167 12.324 265.353 8.971 A 33.92 33.92 0 0 0 265.4 7.1 Q 265.4 2.1 264.3 1.05 A 1.998 1.998 0 0 0 263.74 0.694 Q 262.56 0.16 259.74 0.037 A 42.407 42.407 0 0 0 257.9 0 Q 253.842 0 252.246 0.616 Z M 449.046 0.616 A 2.247 2.247 0 0 0 448.3 1.05 A 1.838 1.838 0 0 0 447.955 1.527 Q 447.2 2.958 447.2 7.1 A 37.323 37.323 0 0 0 447.219 8.307 Q 447.31 11.114 447.847 12.407 A 2.315 2.315 0 0 0 448.35 13.2 A 2.055 2.055 0 0 0 448.864 13.545 Q 450.018 14.115 452.755 14.255 A 38.363 38.363 0 0 0 454.7 14.3 A 41.9 41.9 0 0 0 456.011 14.281 Q 458.924 14.189 460.256 13.669 A 2.415 2.415 0 0 0 461.05 13.2 Q 461.967 12.324 462.153 8.971 A 33.92 33.92 0 0 0 462.2 7.1 Q 462.2 2.1 461.1 1.05 A 1.998 1.998 0 0 0 460.54 0.694 Q 459.36 0.16 456.54 0.037 A 42.407 42.407 0 0 0 454.7 0 Q 450.642 0 449.046 0.616 Z M 236.5 22.3 L 244.2 22.3 L 244.2 27 A 5.26 5.26 0 0 1 244.093 28.114 Q 243.683 30 241.7 30 L 236.5 30 L 236.5 22.3 Z M 433.3 22.3 L 441 22.3 L 441 27 A 5.26 5.26 0 0 1 440.893 28.114 Q 440.483 30 438.5 30 L 433.3 30 L 433.3 22.3 Z" vector-effect="non-scaling-stroke"/></g></svg>
